<?xml version="1.0" encoding="UTF-8" standalone="no"?>
<!-- Created with Inkscape (http://www.inkscape.org/) -->

<svg
   xmlns:dc="http://purl.org/dc/elements/1.1/"
   xmlns:cc="http://creativecommons.org/ns#"
   xmlns:rdf="http://www.w3.org/1999/02/22-rdf-syntax-ns#"
   xmlns:svg="http://www.w3.org/2000/svg"
   xmlns="http://www.w3.org/2000/svg"
   xmlns:xlink="http://www.w3.org/1999/xlink"
   xmlns:sodipodi="http://sodipodi.sourceforge.net/DTD/sodipodi-0.dtd"
   xmlns:inkscape="http://www.inkscape.org/namespaces/inkscape"
   width="210mm"
   height="297mm"
   id="svg2"
   version="1.1"
   inkscape:version="0.47 r22583"
   sodipodi:docname="fig:demonstrator:lateral.svg">
  <defs
     id="defs4">
    <pattern
       inkscape:collect="always"
       xlink:href="#pattern2961"
       id="pattern6054"
       patternTransform="matrix(1.9542257,0,0,1.9542257,-565.1667,-1475.5821)" />
    <pattern
       inkscape:stockid="Wavy"
       id="Wavy"
       height="5.1805778"
       width="30.066020"
       patternUnits="userSpaceOnUse"
       inkscape:collect="always"
       patternTransform="translate(122.05751,68.534954)">
      <path
         id="path5553"
         d="M 7.597,0.061 C 5.079,-0.187 2.656,0.302 -0.01,1.788 L -0.01,3.061 C 2.773,1.431 5.173,1.052 7.472,1.280 C 9.770,1.508 11.969,2.361 14.253,3.218 C 18.820,4.931 23.804,6.676 30.066,3.061 L 30.062,1.788 C 23.622,5.497 19.246,3.770 14.691,2.061 C 12.413,1.207 10.115,0.311 7.597,0.061 z "
         style="fill:black;stroke:none;" />
    </pattern>
    <inkscape:perspective
       sodipodi:type="inkscape:persp3d"
       inkscape:vp_x="0 : 526.18109 : 1"
       inkscape:vp_y="0 : 1000 : 0"
       inkscape:vp_z="744.09448 : 526.18109 : 1"
       inkscape:persp3d-origin="372.04724 : 350.78739 : 1"
       id="perspective10" />
    <inkscape:perspective
       id="perspective3682"
       inkscape:persp3d-origin="0.5 : 0.33333333 : 1"
       inkscape:vp_z="1 : 0.5 : 1"
       inkscape:vp_y="0 : 1000 : 0"
       inkscape:vp_x="0 : 0.5 : 1"
       sodipodi:type="inkscape:persp3d" />
    <inkscape:perspective
       id="perspective3992"
       inkscape:persp3d-origin="0.5 : 0.33333333 : 1"
       inkscape:vp_z="1 : 0.5 : 1"
       inkscape:vp_y="0 : 1000 : 0"
       inkscape:vp_x="0 : 0.5 : 1"
       sodipodi:type="inkscape:persp3d" />
    <inkscape:perspective
       id="perspective4014"
       inkscape:persp3d-origin="0.5 : 0.33333333 : 1"
       inkscape:vp_z="1 : 0.5 : 1"
       inkscape:vp_y="0 : 1000 : 0"
       inkscape:vp_x="0 : 0.5 : 1"
       sodipodi:type="inkscape:persp3d" />
    <inkscape:perspective
       id="perspective4036"
       inkscape:persp3d-origin="0.5 : 0.33333333 : 1"
       inkscape:vp_z="1 : 0.5 : 1"
       inkscape:vp_y="0 : 1000 : 0"
       inkscape:vp_x="0 : 0.5 : 1"
       sodipodi:type="inkscape:persp3d" />
    <inkscape:perspective
       id="perspective4058"
       inkscape:persp3d-origin="0.5 : 0.33333333 : 1"
       inkscape:vp_z="1 : 0.5 : 1"
       inkscape:vp_y="0 : 1000 : 0"
       inkscape:vp_x="0 : 0.5 : 1"
       sodipodi:type="inkscape:persp3d" />
    <inkscape:perspective
       id="perspective4080"
       inkscape:persp3d-origin="0.5 : 0.33333333 : 1"
       inkscape:vp_z="1 : 0.5 : 1"
       inkscape:vp_y="0 : 1000 : 0"
       inkscape:vp_x="0 : 0.5 : 1"
       sodipodi:type="inkscape:persp3d" />
    <inkscape:perspective
       id="perspective4102"
       inkscape:persp3d-origin="0.5 : 0.33333333 : 1"
       inkscape:vp_z="1 : 0.5 : 1"
       inkscape:vp_y="0 : 1000 : 0"
       inkscape:vp_x="0 : 0.5 : 1"
       sodipodi:type="inkscape:persp3d" />
    <inkscape:perspective
       id="perspective4124"
       inkscape:persp3d-origin="0.5 : 0.33333333 : 1"
       inkscape:vp_z="1 : 0.5 : 1"
       inkscape:vp_y="0 : 1000 : 0"
       inkscape:vp_x="0 : 0.5 : 1"
       sodipodi:type="inkscape:persp3d" />
    <inkscape:perspective
       id="perspective4146"
       inkscape:persp3d-origin="0.5 : 0.33333333 : 1"
       inkscape:vp_z="1 : 0.5 : 1"
       inkscape:vp_y="0 : 1000 : 0"
       inkscape:vp_x="0 : 0.5 : 1"
       sodipodi:type="inkscape:persp3d" />
    <inkscape:perspective
       id="perspective4168"
       inkscape:persp3d-origin="0.5 : 0.33333333 : 1"
       inkscape:vp_z="1 : 0.5 : 1"
       inkscape:vp_y="0 : 1000 : 0"
       inkscape:vp_x="0 : 0.5 : 1"
       sodipodi:type="inkscape:persp3d" />
    <inkscape:perspective
       id="perspective4190"
       inkscape:persp3d-origin="0.5 : 0.33333333 : 1"
       inkscape:vp_z="1 : 0.5 : 1"
       inkscape:vp_y="0 : 1000 : 0"
       inkscape:vp_x="0 : 0.5 : 1"
       sodipodi:type="inkscape:persp3d" />
    <inkscape:perspective
       id="perspective5652"
       inkscape:persp3d-origin="0.5 : 0.33333333 : 1"
       inkscape:vp_z="1 : 0.5 : 1"
       inkscape:vp_y="0 : 1000 : 0"
       inkscape:vp_x="0 : 0.5 : 1"
       sodipodi:type="inkscape:persp3d" />
    <inkscape:perspective
       id="perspective5874"
       inkscape:persp3d-origin="0.5 : 0.33333333 : 1"
       inkscape:vp_z="1 : 0.5 : 1"
       inkscape:vp_y="0 : 1000 : 0"
       inkscape:vp_x="0 : 0.5 : 1"
       sodipodi:type="inkscape:persp3d" />
    <inkscape:perspective
       id="perspective5903"
       inkscape:persp3d-origin="0.5 : 0.33333333 : 1"
       inkscape:vp_z="1 : 0.5 : 1"
       inkscape:vp_y="0 : 1000 : 0"
       inkscape:vp_x="0 : 0.5 : 1"
       sodipodi:type="inkscape:persp3d" />
    <inkscape:perspective
       id="perspective5928"
       inkscape:persp3d-origin="0.5 : 0.33333333 : 1"
       inkscape:vp_z="1 : 0.5 : 1"
       inkscape:vp_y="0 : 1000 : 0"
       inkscape:vp_x="0 : 0.5 : 1"
       sodipodi:type="inkscape:persp3d" />
    <inkscape:perspective
       id="perspective5953"
       inkscape:persp3d-origin="0.5 : 0.33333333 : 1"
       inkscape:vp_z="1 : 0.5 : 1"
       inkscape:vp_y="0 : 1000 : 0"
       inkscape:vp_x="0 : 0.5 : 1"
       sodipodi:type="inkscape:persp3d" />
    <pattern
       patternTransform="matrix(1.4663106,0,0,1.4663106,-806.66608,-1321.8442)"
       id="pattern2961"
       xlink:href="#Wavy-7"
       inkscape:collect="always" />
    <inkscape:perspective
       id="perspective2951"
       inkscape:persp3d-origin="0.5 : 0.33333333 : 1"
       inkscape:vp_z="1 : 0.5 : 1"
       inkscape:vp_y="0 : 1000 : 0"
       inkscape:vp_x="0 : 0.5 : 1"
       sodipodi:type="inkscape:persp3d" />
    <pattern
       inkscape:stockid="Wavy"
       id="Wavy-7"
       height="5.1805778"
       width="30.066020"
       patternUnits="userSpaceOnUse"
       inkscape:collect="always"
       patternTransform="matrix(1.4663106,0,0,1.4663106,-256.97566,-420.36791)">
      <path
         id="path5042"
         d="M 7.597,0.061 C 5.079,-0.187 2.656,0.302 -0.01,1.788 L -0.01,3.061 C 2.773,1.431 5.173,1.052 7.472,1.280 C 9.770,1.508 11.969,2.361 14.253,3.218 C 18.820,4.931 23.804,6.676 30.066,3.061 L 30.062,1.788 C 23.622,5.497 19.246,3.770 14.691,2.061 C 12.413,1.207 10.115,0.311 7.597,0.061 z "
         style="fill:black;stroke:none;" />
    </pattern>
    <inkscape:perspective
       id="perspective2883"
       inkscape:persp3d-origin="0.5 : 0.33333333 : 1"
       inkscape:vp_z="1 : 0.5 : 1"
       inkscape:vp_y="0 : 1000 : 0"
       inkscape:vp_x="0 : 0.5 : 1"
       sodipodi:type="inkscape:persp3d" />
    <inkscape:perspective
       id="perspective2911"
       inkscape:persp3d-origin="0.5 : 0.33333333 : 1"
       inkscape:vp_z="1 : 0.5 : 1"
       inkscape:vp_y="0 : 1000 : 0"
       inkscape:vp_x="0 : 0.5 : 1"
       sodipodi:type="inkscape:persp3d" />
    <inkscape:perspective
       id="perspective2939"
       inkscape:persp3d-origin="0.5 : 0.33333333 : 1"
       inkscape:vp_z="1 : 0.5 : 1"
       inkscape:vp_y="0 : 1000 : 0"
       inkscape:vp_x="0 : 0.5 : 1"
       sodipodi:type="inkscape:persp3d" />
  </defs>
  <sodipodi:namedview
     id="base"
     pagecolor="#ffffff"
     bordercolor="#666666"
     borderopacity="1.0"
     inkscape:pageopacity="0.0"
     inkscape:pageshadow="2"
     inkscape:zoom="0.76603235"
     inkscape:cx="86.607282"
     inkscape:cy="739.26079"
     inkscape:document-units="px"
     inkscape:current-layer="layer1"
     showgrid="false"
     inkscape:window-width="1280"
     inkscape:window-height="949"
     inkscape:window-x="0"
     inkscape:window-y="24"
     inkscape:window-maximized="1" />
  <metadata
     id="metadata7">
    <rdf:RDF>
      <cc:Work
         rdf:about="">
        <dc:format>image/svg+xml</dc:format>
        <dc:type
           rdf:resource="http://purl.org/dc/dcmitype/StillImage" />
      </cc:Work>
    </rdf:RDF>
  </metadata>
  <g
     inkscape:label="Calque 1"
     inkscape:groupmode="layer"
     id="layer1">
    <path
       style="fill:#000000"
       d="m 344.22306,221.35458 -0.38916,24.53477 -0.71115,-18.48997 c -0.39113,-10.16949 -0.53125,-26.03589 -0.31134,-35.25866 l 0.39981,-16.7687 1.21691,0.7521 1.21692,0.75209 1.3981,-1.76222 c 0.76896,-0.96922 2.21675,-4.32237 3.21733,-7.45145 1.00057,-3.12907 3.32411,-7.91791 5.16342,-10.64187 l 3.34421,-4.95267 0,-3.83351 0,-3.83353 3.6738,-2.88981 c 2.02059,-1.5894 7.28078,-4.23936 11.68931,-5.8888 l 8.01551,-2.99899 27.77966,-5.49072 27.77966,-5.49074 19.20113,-2.34824 c 10.56062,-1.29153 26.2949,-2.84968 34.96508,-3.46253 l 15.76395,-1.11431 16.94907,-10.25269 16.94908,-10.252703 27.0238,-13.39091 27.02381,-13.39091 8.53383,-2.1357 8.53384,-2.135713 19.91227,-1.42738 19.91228,-1.42737 31.6463,-0.0128 31.6463,-0.0128 0,1.42231 0,1.4223 -35.91322,0.001 -35.91321,10e-4 -15.64536,1.42091 -15.64536,1.420913 -9.95614,2.48925 -9.95614,2.48923 9.84376,0.42611 9.84375,0.42609 7.22392,-3.12096 7.2239,-3.12098 44.44705,-0.70491 44.44705,-0.704913 0,1.621903 0,1.6219 -24.89035,0 -24.89035,0 0,2.13346 0,2.13345 22.64056,0 22.64058,0 2.24977,0.86333 2.24979,0.86332 0,2.42762 0,2.42762 -8.53384,-0.61728 -8.53383,-0.61728 0,3.62779 0,3.62779 3.20019,0.4545 3.20019,0.4545 0,12.80075 0,12.800753 -5.68923,0.50685 -5.68922,0.50685 7.11153,1.91942 c 3.91134,1.05566 8.87163,1.94765 11.02287,1.98218 l 3.91134,0.0627 0,2.04334 0,2.04335 -4.46904,0.44569 -4.46904,0.44569 -1.17434,3.20018 -1.17436,3.20018 5.64338,0 5.6434,0 0,1.42231 0,1.4223 -5.46878,0 -5.46878,0 -2.1294,2.48904 c -1.17117,1.36897 -4.25714,7.92935 -6.85771,14.57863 -2.60056,6.64928 -7.82188,18.31834 -11.60294,25.93123 l -6.87464,13.84165 0,2.87044 0,2.87046 8.88941,-0.01 c 4.88917,-0.006 13.1804,-0.4154 18.42494,-0.91074 l 9.53555,-0.90065 0.50724,-7.97865 0.50723,-7.97868 0.26895,11.02287 0.26893,11.02287 -18.25292,0 c -10.03911,0 -18.56931,0.31638 -18.95599,0.70306 -0.38668,0.38668 -0.4207,2.62681 -0.0757,4.97807 l 0.6275,4.27501 18.68411,0.20184 18.68412,0.20182 -5.68922,1.01864 -5.68922,1.01864 5.33364,0.20183 5.33365,0.20184 0,1.19513 0,1.19515 -33.06861,0.93504 c -18.18773,0.51428 -56.56989,0.93652 -85.2937,0.93832 l -52.22508,0.003 0.81868,2.13346 0.81869,2.13345 84.47501,0 84.47501,0 0,1.43225 0,1.43225 -96.3612,-0.36552 -96.3612,-0.36552 -0.87101,-12.08959 -0.87102,-12.0896 -1.76643,-6.39237 c -0.97155,-3.51581 -2.9255,-8.63611 -4.34211,-11.37844 l -2.57569,-4.98565 -5.45417,-5.1897 -5.45416,-5.18969 -7.55759,-3.8961 -7.5576,-3.89609 -9.61669,-0.68807 -9.61668,-0.68807 -7.90274,2.29738 -7.90275,2.2974 -6.79867,4.6852 -6.79867,4.68519 -5.47365,7.76934 -5.47366,7.76934 -2.09493,9.95614 -2.09493,9.95614 -0.0247,7.90641 -0.0247,7.90642 -1.77789,2.35437 -1.77788,2.35438 -19.91227,-1.39891 -19.91228,-1.39889 -12.80075,-3.02385 c -7.04041,-1.66312 -14.56086,-3.6485 -16.71209,-4.41195 l -3.91134,-1.3881 0,-1.92024 0,-1.92024 4.62249,-1.35038 4.62249,-1.35039 -3.20018,-0.98962 c -1.76011,-0.5443 -3.20019,-1.51724 -3.20019,-2.1621 0,-0.64487 0.65048,-1.57451 1.4455,-2.06586 l 1.44551,-0.89337 -0.8183,-1.32403 -0.81828,-1.32402 -2.72709,0 -2.72708,0 -0.38917,24.53477 z m 67.88149,-0.76237 7.11153,0.0193 -3.18063,-0.61382 c -1.74935,-0.3376 -4.94954,-0.34635 -7.11153,-0.0194 l -3.93089,0.59441 7.11152,0.0193 z m 122.94016,-2.43782 8.53383,0 -0.81868,-2.13346 -0.81869,-2.13346 -1.87216,0 c -1.02969,0 -3.9689,-1.7601 -6.53156,-3.91134 l -4.65942,-3.91134 0.99913,2.61739 0.99914,2.61738 -1.02564,1.64953 -1.02562,1.64954 -1.639,-12.0896 c -0.90144,-6.64928 -2.3708,-14.75045 -3.26523,-18.00259 l -1.62623,-5.91301 -4.60317,-6.84887 -4.60316,-6.84887 -6.9655,-5.24374 -6.96552,-5.24373 -7.96869,-2.52242 -7.96871,-2.5224 -11.70663,0.11336 -11.70662,0.11322 -9.09229,4.25478 -9.09229,4.2548 -5.83825,5.27452 c -3.21105,2.90098 -7.25303,7.56365 -8.98218,10.3615 -1.72917,2.79783 -4.64702,8.97635 -6.48413,13.73002 l -3.34019,8.64306 0.71226,-5.56688 0.71227,-5.56688 3.85316,-7.6156 3.85314,-7.61562 7.57311,-7.16232 7.5731,-7.16233 8.18203,-3.83438 8.18201,-3.83438 14.93421,0.001 14.93421,0.001 8.10946,3.27514 8.10946,3.27515 7.21686,6.48858 7.21687,6.48858 3.58408,6.11578 3.58409,6.11579 1.83095,9.00934 1.83096,9.00935 3.19796,0.46966 3.19795,0.46966 -1.18243,-13.27041 -1.18243,-13.27055 0.19812,-16.87279 0.19814,-16.87278 -16.55465,0.92203 c -9.10505,0.5071 -18.95478,1.2757 -21.88829,1.70801 l -5.33364,0.786 0,-1.3939 0,-1.39391 14.57863,-0.90539 c 8.01825,-0.49797 18.25885,-1.26988 22.75689,-1.71537 l 8.17825,-0.80999 0,-1.98971 0,-1.9897 5.14357,-5.69334 5.14357,-5.69332 -7.10514,0 -7.10516,0 -7.96836,3.64805 -7.96836,3.64803 -11.76022,2.00071 c -6.46811,1.1004 -25.52102,3.65638 -42.33978,5.67996 -16.81877,2.02359 -33.37193,4.3761 -36.78481,5.2278 l -6.20525,1.54854 2.34873,1.31442 2.34872,1.31441 12.39035,-1.51966 c 6.81469,-0.83581 13.5482,-1.52146 14.96333,-1.52366 l 2.57297,-0.004 -0.76415,1.23644 -0.76416,1.23642 -12.91087,1.01001 -12.91085,1.01 -4.66298,4.09414 c -2.56463,2.25178 -7.80931,5.64876 -11.65484,7.54883 l -6.99187,3.4547 -15.64536,3.66749 c -8.60495,2.01709 -18.52553,4.10677 -22.04574,4.64371 l -6.40036,0.97624 -1.04496,1.56195 c -0.57472,0.85907 -1.05475,1.91685 -1.06672,2.35061 -0.0114,0.43376 6.70247,-0.32791 14.92099,-1.6926 8.21852,-1.3647 19.41918,-2.92236 24.89035,-3.46148 l 9.94756,-0.98021 0,1.40991 0,1.4099 -11.02287,0.97395 c -6.06258,0.53569 -17.54664,1.97864 -25.52016,3.20658 l -14.49726,2.2326 -1.41871,4.0697 -1.4187,4.06972 1.16589,0.72055 1.16589,0.72057 17.5947,-1.368 c 9.67709,-0.75242 19.94913,-1.38254 22.82676,-1.40029 l 5.23205,-0.0323 2.21679,2.21679 2.21679,2.2168 -3.38684,6.68357 c -1.86275,3.67596 -5.09831,8.39505 -7.19012,10.48687 l -3.8033,3.8033 -7.08468,1.51939 c -3.89656,0.83566 -10.73337,1.58491 -15.19291,1.66498 l -8.10824,0.14559 4.97806,1.21689 4.97807,1.2169 25.01959,0.98455 25.01959,0.98455 0.86556,-12.26507 0.86556,-12.26508 3.44064,-8.51816 3.44064,-8.51817 4.09839,-4.7704 c 2.25411,-2.62371 6.87353,-6.92512 10.26539,-9.55868 l 6.16701,-4.78827 7.34489,-2.53825 7.3449,-2.53825 9.95614,-0.0128 9.95614,-0.0128 7.93578,3.26468 7.93579,3.26467 5.25638,4.00924 c 2.891,2.20507 7.20453,6.469 9.58563,9.47537 l 4.32927,5.46615 2.76636,7.87078 2.76635,7.8708 0.81103,11.00169 c 0.44605,6.05094 1.05704,11.80175 1.35773,12.77958 l 0.54672,1.77788 8.53384,0 z m 25.69077,-6.22709 16.35652,0 -8.17826,-0.5132 c -4.49804,-0.28226 -11.85847,-0.28226 -16.35651,0 l -8.17826,0.5132 16.35651,0 z m -197.21771,-2.01013 5.04491,-0.58897 -2.65478,-2.84957 c -1.46014,-1.56727 -4.14393,-6.30429 -5.96401,-10.5267 l -3.30924,-7.67713 -2.11713,0.3775 -2.11711,0.3775 -0.50107,2.60181 -0.50106,2.60181 2.89918,5.91568 c 1.59456,3.25364 3.18634,6.91499 3.53731,8.13637 l 0.6381,2.22066 5.0449,-0.58896 z m 296.06795,0.49553 42.66917,-0.001 -21.77808,-0.43301 c -11.97793,-0.23815 -31.17905,-0.23762 -42.66916,0.001 l -20.8911,0.43416 42.66917,-0.001 z m -306.50683,-0.79214 1.8964,0 -0.94819,-0.94821 -0.94821,-0.94819 -0.94821,0.94819 -0.94819,0.94821 1.8964,0 z m 18.04061,-1.92117 c 0.28398,-0.28396 0.11279,-1.56796 -0.3805,-2.85333 l -0.8968,-2.33703 -2.20173,0 -2.20173,0 2.58224,2.85333 c 1.42023,1.56933 2.81455,2.621 3.09852,2.33703 z m 167.86448,-0.0324 c 0.26613,-0.26612 0.0804,-1.53553 -0.41292,-2.8209 -0.49324,-1.28536 -1.46836,-2.33703 -2.16694,-2.33703 -0.69857,0 -1.27014,0.51203 -1.27014,1.13784 0,0.62582 0.75738,1.89523 1.68306,2.82091 0.92569,0.92569 1.90081,1.46531 2.16694,1.19918 z m 42.29839,0.53129 c 21.30288,0 51.31617,-0.42144 66.69618,-0.93653 l 27.96368,-0.93653 0,-4.04154 0,-4.04154 -6.0448,-0.0235 c -3.32463,-0.0128 -33.56641,1.02175 -67.20393,2.29931 -33.63753,1.27756 -61.33421,2.4766 -61.5482,2.66456 -0.21397,0.18794 0.0145,1.39339 0.50775,2.67876 l 0.89681,2.33703 38.73251,0 z m -204.0243,-2.84461 1.8964,0 -0.94819,-0.94821 -0.94821,-0.94819 -0.94821,0.94819 -0.94819,0.94821 1.8964,0 z m 13.5119,-1.4223 c 0.39114,0 0.71115,-0.32002 0.71115,-0.71116 0,-0.39113 -0.32001,-0.71115 -0.71115,-0.71115 -0.39113,0 -0.71115,0.32002 -0.71115,0.71115 0,0.39114 0.32002,0.71116 0.71115,0.71116 z m -5.53705,-1.42231 1.98129,0 0,-1.30598 c 0,-0.71829 -0.3885,-2.31838 -0.86333,-3.55576 l -0.86332,-2.24979 -1.98129,0 -1.98128,0 0,1.30598 c 0,0.71829 0.38848,2.31838 0.86332,3.55576 l 0.86333,2.24979 1.98128,0 z m 145.63415,0 1.8964,0 -0.94819,-0.94821 -0.94821,-0.94819 -0.94821,0.94819 -0.94819,0.94821 1.8964,0 z m -163.99355,-2.43877 1.90919,-0.73262 -3.10188,-2.69024 c -1.70603,-1.47964 -3.36361,-2.42849 -3.68353,-2.10857 -0.31992,0.31992 0.21679,1.8602 1.19267,3.42286 l 1.77436,2.8412 1.90919,-0.73263 z m 176.06817,-1.82815 3.3729,0 0.45449,-3.16458 0.4545,-3.16458 3.31992,-1.64876 c 1.82597,-0.90682 4.0341,-2.36292 4.90695,-3.23579 0.87287,-0.87287 2.5791,-1.56681 3.79161,-1.54209 l 2.20458,0.0449 -3.91134,3.44261 c -2.15124,1.89343 -3.91134,4.0688 -3.91134,4.83419 l 0,1.39161 -3.20019,0.61638 -3.20019,0.61639 14.36014,0.19369 c 7.89806,0.10653 20.26747,-0.22562 27.48756,-0.73812 l 13.12743,-0.93181 -1.04253,-2.97953 c -0.57337,-1.63874 -1.10208,-6.49974 -1.17491,-10.80221 l -0.13241,-7.82268 6.40037,-0.3609 c 3.52021,-0.1985 8.64051,-0.76531 11.37845,-1.25959 l 4.97807,-0.89872 -12.0896,-3.35674 -12.0896,-3.35672 -4.97807,0.91106 -4.97807,0.91107 -3.392,2.63854 c -1.86559,1.4512 -4.10572,2.6119 -4.97807,2.57934 l -1.58607,-0.0592 5.08264,-4.56329 c 2.79544,-2.5098 5.49552,-5.68335 6.00015,-7.05232 l 0.91753,-2.48903 2.81859,0 2.81857,0 1.14327,2.04291 1.14327,2.04291 19.78282,5.78483 c 10.88055,3.18166 20.04439,5.52326 20.3641,5.20357 0.31969,-0.31971 4.43702,1.59813 9.14963,4.26185 4.7126,2.66372 9.21539,4.84312 10.00621,4.84312 l 1.43783,0 -0.76187,-1.98541 c -0.41904,-1.09198 -1.53151,-4.55419 -2.47217,-7.69383 l -1.71028,-5.70841 0.87361,-3.48073 0.8736,-3.48071 9.26906,-10.33708 9.26907,-10.33708 0,-3.37871 0,-3.37873 -9.24499,0 -9.24498,0 0,2.13345 0,2.13346 -1.42231,0 -1.4223,0 0,-2.09254 0,-2.09253 -10.31172,0.67489 c -5.67144,0.37121 -28.55278,1.64841 -50.84742,2.83826 -22.29464,1.18984 -43.61339,2.39864 -47.37501,2.68623 -3.76161,0.28759 -7.21004,0.89364 -7.66315,1.34676 -0.45312,0.45311 -1.13677,6.80604 -1.51921,14.11763 l -0.69535,13.29376 1.72188,14.81108 c 0.94703,8.1461 2.02598,15.30312 2.39764,15.90449 l 0.67577,1.09342 3.37291,0 z m 25.01345,-14.51123 -4.37504,0.33336 0,-0.82724 c 0,-0.45499 0.70611,-2.14664 1.56915,-3.75924 l 1.56915,-2.93198 -1.88353,-1.1641 -1.88355,-1.16409 0.9642,-0.96419 0.96419,-0.9642 2.34567,0.90011 2.34567,0.90012 -0.88912,3.54251 -0.88911,3.54251 2.95564,0 2.95565,0 -0.68696,1.11153 -0.68696,1.11153 -4.37505,0.33337 z m 9.05291,0.28818 -2.04951,0 0,-1.51581 c 0,-0.8337 0.66255,-2.75381 1.47234,-4.26692 l 1.47236,-2.75111 -2.18351,0 -2.1835,0 0,-1.4223 0,-1.42231 2.88925,0 2.88925,0 0.82564,2.15158 0.82563,2.15157 -1.75558,2.11535 -1.75558,2.11534 1.6804,0 1.6804,0 -0.87903,1.4223 c -0.48347,0.78227 -1.80132,1.42231 -2.92856,1.42231 z m -16.27257,-1.42231 c -0.78226,0 -1.4223,-0.64003 -1.4223,-1.4223 l 0,-1.42231 -2.13346,0 c -1.1734,0 -2.13346,-0.31269 -2.13346,-0.69489 0,-0.38219 1.1023,-1.98229 2.44955,-3.55577 1.34725,-1.57347 2.94735,-2.86087 3.55577,-2.86087 l 1.10621,0 0,4.97807 0,4.97807 -1.42231,0 z m 88.41268,-9.61694 -1.55878,1.55879 -0.97871,-2.55048 -0.97872,-2.55048 1.50833,-4.44331 c 0.82957,-2.44382 1.92139,-6.86123 2.42625,-9.81649 l 0.91793,-5.37317 1.35567,0.83786 1.35565,0.83783 -0.72577,3.11303 c -0.39918,1.71216 -0.95917,6.19881 -1.24443,9.97033 l -0.51863,6.85731 -1.55879,1.55878 z m -2.84421,-26.22982 -5.2082,0.16234 2.76088,-2.07007 2.76088,-2.07006 -1.7781,0 -1.77808,0 0.97731,-1.58132 0.97731,-1.58132 -1.9601,-1.24152 -1.9601,-1.2415 6.75595,-0.0218 6.75595,-0.0218 0,1.35538 c 0,0.74546 -0.69649,2.88401 -1.54775,4.75234 l -1.54776,3.39695 -5.20819,0.16234 z m 4.05406,-4.00576 1.28658,-2.08171 -1.33937,-1.33937 -1.33939,-1.33937 -0.91056,0.91056 -0.91057,0.91057 0.96338,2.51051 0.96337,2.51052 1.28656,-2.08171 z m 5.75589,4.29488 -1.50625,0 0,-1.4223 c 0,-0.78227 0.28224,-1.42231 0.62721,-1.42231 0.34496,0 1.02278,0.64004 1.50625,1.42231 l 0.87903,1.4223 -1.50624,0 z m 4.04899,0 -1.4562,0 0.91753,-1.4846 0.91754,-1.48462 -1.66719,-2.00885 -1.6672,-2.00885 0.91754,-1.4846 c 0.50465,-0.81653 1.85991,-1.48461 3.01169,-1.48461 l 2.09416,0 0.77604,2.02231 0.77604,2.02232 -1.58188,2.95575 -1.58187,2.95575 -1.4562,0 z m 1.08219,-6.16332 0.94819,-0.9482 -0.94819,-0.9482 -0.94821,-0.94821 0,1.89641 0,1.89641 0.94821,-0.94821 z m -290.38739,55.94399 c 0.39114,0 0.71116,-0.32002 0.71116,-0.71115 0,-0.39114 -0.32002,-0.71116 -0.71116,-0.71116 -0.39113,0 -0.71115,0.32002 -0.71115,0.71116 0,0.39113 0.32002,0.71115 0.71115,0.71115 z m 240.161,-1.42231 c 2.62319,0 8.70355,-0.4112 13.51191,-0.91377 l 8.74247,-0.91376 0,-5.30881 0,-5.30883 -4.44471,-0.88894 c -2.44459,-0.48892 -7.51254,-0.88894 -11.26211,-0.88894 -3.74958,0 -7.82982,0.3885 -9.0672,0.86332 l -2.24979,0.86333 0,6.2482 0,6.2482 4.76943,0 z m -263.81408,-1.4223 1.23726,0 1.62756,-8.27273 1.62756,-8.27273 2.78598,-5.59475 2.78599,-5.59475 -2.74514,3.55576 c -1.50983,1.95567 -4.05269,5.2571 -5.6508,7.33648 l -2.90566,3.78073 0,6.53099 0,6.531 1.23725,0 z m 298.42777,-0.14067 c 6.10981,-0.0774 14.58208,-0.55739 18.8273,-1.06673 l 7.71855,-0.92606 -15.88806,-4.72847 -15.88808,-4.72846 -2.49778,0.47338 -2.49778,0.47338 -0.44145,5.32181 -0.44142,5.32182 11.10872,-0.14067 z m -280.73554,-1.42341 c 0.93167,-0.0779 3.29403,-0.65421 5.2497,-1.28053 l 3.55577,-1.13876 -6.12875,-0.1418 -6.12871,-0.14181 0.87903,1.42231 c 0.48345,0.78227 1.64129,1.35851 2.57296,1.28053 z m 22.58967,-1.83704 c 6.40791,-0.51496 11.9549,-1.24045 12.32665,-1.6122 0.37175,-0.37175 -4.8711,-0.67591 -11.65074,-0.67591 l -12.32666,0 0,1.6122 0,1.6122 11.65075,-0.93629 z m 284.18881,-0.8658 2.84461,0 0,-1.28915 0,-1.28915 -2.84461,0.74388 c -1.56454,0.40914 -2.84461,0.98926 -2.84461,1.28915 0,0.29991 1.28007,0.54527 2.84461,0.54527 z m -5.87066,-1.51245 1.95205,0.0902 -1.44341,-1.77788 c -0.79388,-0.97783 -1.67229,-2.8694 -1.95203,-4.20349 l -0.50863,-2.42563 -3.5518,2.69696 -3.55181,2.69696 3.55181,1.41639 c 1.95348,0.77901 4.43021,1.45695 5.50382,1.50655 z m 5.0174,-1.75005 1.56441,-0.51263 0.45005,-3.80166 0.45004,-3.80165 -2.78691,0 -2.78691,0 -0.88786,2.31373 -0.88787,2.31374 1.66031,2.00056 1.66032,2.00054 1.56442,-0.51263 z m -65.21403,-4.42691 2.51017,-2.51016 17.19993,0.66294 c 9.45995,0.36461 18.48,1.10364 20.04453,1.64227 l 2.84461,0.97931 -3.41551,-2.04139 -3.41551,-2.0414 1.61877,-0.54588 c 0.89032,-0.30023 -5.25315,-0.70186 -13.65215,-0.89252 l -15.27093,-0.34665 -4.96948,1.11435 -4.96948,1.11435 -0.51756,2.68748 -0.51756,2.68747 2.51017,-2.51017 z m 44.02155,-0.84442 c 0.39113,0 0.71115,-0.32002 0.71115,-0.71116 0,-0.39113 -0.32002,-0.71115 -0.71115,-0.71115 -0.39113,0 -0.71115,0.32002 -0.71115,0.71115 0,0.39114 0.32002,0.71116 0.71115,0.71116 z m -2.84461,-1.42231 c 0.39113,0 0.71115,-0.32002 0.71115,-0.71115 0,-0.39114 -0.32002,-0.71115 -0.71115,-0.71115 -0.39113,0 -0.71115,0.32001 -0.71115,0.71115 0,0.39113 0.32002,0.71115 0.71115,0.71115 z m 31.49222,0 c 0.24121,0 1.82837,-3.04018 3.52702,-6.75595 1.69866,-3.71577 4.97049,-10.91619 7.27072,-16.00094 2.30024,-5.08474 5.7451,-13.37028 7.65525,-18.41231 1.91014,-5.04203 3.06777,-8.76211 2.57253,-8.26687 -0.49527,0.49526 -4.67613,9.34892 -9.29083,19.67478 -4.6147,10.32587 -9.65972,20.82817 -11.21115,23.33846 l -2.82079,4.56413 0.92935,0.92935 c 0.51115,0.51115 1.1267,0.92935 1.3679,0.92935 z m -75.54932,-2.87313 c 1.19231,-0.98952 1.87493,-2.09204 1.51694,-2.45003 -0.358,-0.358 -1.33353,-0.22902 -2.16784,0.28661 -0.83431,0.51564 -1.51693,1.61815 -1.51693,2.45005 l 0,1.5125 2.16783,-1.79913 z m 58.28015,1.45083 c 0.39114,0 0.71116,-0.32002 0.71116,-0.71116 0,-0.39113 -0.32002,-0.71115 -0.71116,-0.71115 -0.39113,0 -0.71115,0.32002 -0.71115,0.71115 0,0.39114 0.32002,0.71116 0.71115,0.71116 z m 4.47939,-2.01818 c 1.18451,-0.45453 3.38137,-0.82644 4.88193,-0.82644 l 2.72828,0 -0.0565,-14.57863 -0.0565,-14.57863 -6.2346,6.77284 -6.2346,6.77282 -0.91065,4.14623 -0.91068,4.14623 2.31981,4.48601 2.31981,4.48601 2.15364,-0.82644 z m -48.45234,-0.93871 2.72609,-0.11222 -1.86677,-0.74703 -1.86678,-0.74702 -0.85931,0.85932 -0.8593,0.8593 2.72607,-0.11222 z m 8.41532,0.11222 c 0.39113,0 0.71115,-0.32002 0.71115,-0.71115 0,-0.39114 -0.32002,-0.71116 -0.71115,-0.71116 -0.39114,0 -0.71116,0.32002 -0.71116,0.71116 0,0.39113 0.32002,0.71115 0.71116,0.71115 z m 5.68922,-0.27728 4.26692,-0.0526 -2.51611,-0.65565 c -1.38386,-0.36063 -3.30397,-0.3369 -4.26691,0.0528 l -1.75082,0.70836 4.26692,-0.0528 z m 28.44611,0.27728 c 0.39113,0 0.71115,-0.32002 0.71115,-0.71115 0,-0.39114 -0.32002,-0.71116 -0.71115,-0.71116 -0.39113,0 -0.71115,0.32002 -0.71115,0.71116 0,0.39113 0.32002,0.71115 0.71115,0.71115 z m 18.88785,-6.40038 c 1.38638,-2.3468 4.98969,-9.70723 8.00735,-16.35651 3.01765,-6.64928 6.3612,-13.94802 7.43012,-16.21945 1.06891,-2.27142 1.94347,-4.67156 1.94347,-5.33364 l 0,-1.2038 -4.04427,0 -4.04428,0 -5.91186,7.01113 -5.91187,7.01112 0.006,14.67904 0.006,14.67903 2.5207,-4.26692 z m -319.70546,-4.26691 c 0.78227,-0.48347 1.42231,-1.19905 1.42231,-1.59018 0,-0.39114 -0.64004,-0.3156 -1.42231,0.16787 -0.78227,0.48347 -1.4223,1.19906 -1.4223,1.5902 0,0.39113 0.64003,0.31558 1.4223,-0.16789 z m 4.03804,0.71115 1.37019,0 3.31723,-5.33365 c 1.82448,-2.9335 3.88876,-6.22147 4.58726,-7.30662 l 1.27004,-1.97298 -1.27703,0.78925 c -0.70237,0.43409 -3.38323,3.72207 -5.95746,7.30663 l -4.68041,6.51737 1.37018,0 z m 10.185,-2.13346 c 0.78227,-0.48347 1.42231,-1.16127 1.42231,-1.50624 0,-0.34496 -0.64004,-0.62722 -1.42231,-0.62722 l -1.4223,0 0,1.50625 0,1.50625 1.4223,-0.87904 z m 5.54948,-3.10711 2.70204,-0.70659 0.72672,-3.78238 c 0.39969,-2.08029 0.40875,-4.10238 0.0202,-4.49352 -0.3886,-0.39113 -2.26134,1.09528 -4.16164,3.30314 l -3.45509,4.01427 0.7329,1.18585 0.73289,1.18583 2.70204,-0.70659 z m 8.67358,-0.44865 1.8964,0 -0.94819,-0.9482 -0.94821,-0.94821 -0.94821,0.94821 -0.94819,0.9482 1.8964,0 z m -23.46804,-1.42231 c 0.39113,0 0.71115,-0.32002 0.71115,-0.71115 0,-0.39114 -0.32002,-0.71115 -0.71115,-0.71115 -0.39114,0 -0.71116,0.32001 -0.71116,0.71115 0,0.39113 0.32002,0.71115 0.71116,0.71115 z m 28.51855,-0.93575 c 1.13356,-0.435 2.06102,-1.00466 2.06102,-1.26593 0,-0.26127 -0.57298,-0.82915 -1.27328,-1.26196 l -1.27326,-0.78693 -0.78776,2.05285 -0.78776,2.05286 2.06104,-0.79089 z m -6.69326,-0.48655 c 0.66103,0 2.36032,-1.28008 3.77621,-2.84462 l 2.57433,-2.84461 -2.06943,0 c -1.1382,0 -2.83748,0.76805 -3.77621,1.70677 -0.93872,0.93872 -1.70676,2.2188 -1.70676,2.84461 0,0.62582 0.54084,1.13785 1.20186,1.13785 z m 19.77714,-2.1874 c 2.93351,-1.22405 6.82926,-3.2039 8.65724,-4.39964 l 3.3236,-2.17408 -0.85826,-0.85826 -0.85827,-0.85827 -1.68307,1.68306 -1.68305,1.68306 -3.88086,0 -3.88087,0 -2.23505,2.23505 c -1.22928,1.22929 -2.23505,2.83797 -2.23505,3.57485 l 0,1.3398 5.33364,-2.22557 z m -37.97499,-1.68443 c 1.82933,-1.73837 3.04159,-3.4358 2.69391,-3.77204 -0.34767,-0.33625 -1.84439,1.08606 -3.32605,3.16067 l -2.69392,3.77204 3.32606,-3.16067 z m 8.87054,-6.95013 c 2.18028,-0.27857 10.18075,-0.93703 17.77882,-1.46322 l 13.81467,-0.95674 2.84461,-1.78194 c 1.56454,-0.98005 7.64489,-2.82221 13.5119,-4.09367 5.86701,-1.27145 19.62782,-3.53178 30.57957,-5.02295 l 19.91228,-2.71124 -12.80075,0.73949 c -7.04041,0.40671 -23.04135,2.32327 -35.55764,4.259 -12.51629,1.93574 -25.31704,4.10876 -28.44611,4.82893 -3.12907,0.72017 -7.92935,1.30469 -10.66729,1.29893 l -4.97807,-0.01 2.58215,-1.95753 2.58215,-1.95753 11.39054,-3.07351 c 6.2648,-1.69042 18.52207,-4.29706 27.23837,-5.79255 8.71632,-1.49547 27.39007,-4.03599 41.49723,-5.64557 14.10717,-1.60954 26.28943,-3.17141 27.0717,-3.47078 0.78226,-0.29937 -1.13785,-0.58852 -4.26692,-0.64256 -3.12907,-0.054 -15.6098,1.1258 -27.73496,2.62185 -12.12515,1.49607 -28.12609,3.77672 -35.55764,5.06812 -7.43154,1.29141 -21.59371,4.16964 -31.47148,6.39611 l -17.95959,4.04809 -7.28633,3.13451 -7.28635,3.13449 0,1.15704 0,1.15705 4.6225,0.6216 c 2.54237,0.34188 6.40636,0.39368 8.58664,0.11507 z m 13.81467,-6.24571 1.8964,0 -0.94819,-0.94819 -0.94821,-0.94821 -0.94821,0.94821 -0.94819,0.94819 1.8964,0 z m 4.26692,-1.59769 c 1.1734,0.0582 4.6936,-0.4832 7.82268,-1.20316 3.12907,-0.71994 14.64974,-2.60087 25.6015,-4.17983 10.95175,-1.57894 26.63267,-3.5268 34.84648,-4.32857 8.21382,-0.80175 23.37416,-2.08699 33.68966,-2.85609 l 18.75545,-1.39832 4.71259,-2.13342 4.71259,-2.13342 -14.93421,0.48702 -14.9342,0.48701 -24.1792,3.0467 c -13.29855,1.67569 -33.45974,4.61059 -44.80262,6.52201 -11.34289,1.91141 -23.5036,4.39981 -27.02381,5.52976 l -6.40037,2.05446 2.13346,0.10582 z m 283.36865,0.17538 c 0.4943,0 2.32599,-2.08012 4.07039,-4.62249 l 3.17166,-4.62249 -1.82582,1.66674 -1.82579,1.66673 -1.96016,-0.75217 -1.96013,-0.75217 0,1.6584 0,1.65843 1.4223,-0.87905 1.42231,-0.87902 0,1.22179 c 0,0.67198 -0.76805,1.98982 -1.70677,2.92854 -0.93872,0.93872 -1.30232,1.70676 -0.80799,1.70676 z m -131.53754,-3.31937 c 4.49804,-0.46321 30.41495,-1.94734 57.59315,-3.29807 l 49.41488,-2.45587 0.85125,-2.68206 0.85125,-2.68205 -0.79285,-0.79285 -0.79287,-0.79287 -55.86483,2.52474 -55.86485,2.52473 -1.74146,2.28666 c -0.9578,1.25766 -1.7618,3.16936 -1.7867,4.24824 l -0.0452,1.9616 8.17825,-0.8422 z m -65.78163,-5.57314 5.68922,-0.0287 -3.21677,-0.61856 c -1.76922,-0.3402 -4.32937,-0.32728 -5.68922,0.0287 l -2.47245,0.64727 5.68922,-0.0287 z m 12.0896,-1.06363 1.8964,0 -0.94819,-0.94819 -0.94821,-0.94821 -0.94821,0.94821 -0.94819,0.94819 1.8964,0 z m 173.50226,0 9.67081,0 0.86332,-2.24977 c 0.47484,-1.23739 0.86333,-2.83748 0.86333,-3.55576 l 0,-1.30599 -6.75595,0.0193 c -3.71578,0.0114 -8.13687,0.38987 -9.82465,0.84266 l -3.06868,0.82323 -0.7095,2.7131 -0.70949,2.71312 9.67081,0 z m 14.44547,-0.0447 1.93006,-0.0447 2.55543,-3.51106 2.55544,-3.51107 -3.62217,0 -3.62216,0 0,1.30599 c 0,0.71828 -0.38849,2.31837 -0.86333,3.55576 l -0.86332,2.24978 1.93005,-0.0447 z m 6.0448,0.0447 c 0.30745,0 0.94015,-0.99329 1.40602,-2.20733 l 0.84703,-2.20733 -1.40601,0.86897 c -0.77331,0.47794 -1.40602,1.47123 -1.40602,2.20733 0,0.7361 0.25155,1.33836 0.55898,1.33836 z m 6.66265,-0.24715 4.86797,-0.464 0.46942,-3.31403 0.46941,-3.31403 -3.15103,0.46942 -3.15103,0.46942 -2.18635,3.30861 -2.18634,3.30862 4.86795,-0.46401 z m 7.94339,-2.24188 0.7174,-1.77788 -0.7174,-1.77788 -0.71739,-1.77789 0,3.55577 0,3.55576 0.71739,-1.77788 z m -142.81694,-1.90048 12.44517,-0.24099 0,-1.15657 c 0,-0.63611 -0.80004,-1.66056 -1.77788,-2.27653 l -1.77788,-1.11995 -8.53383,0.44262 -8.53384,0.44262 -2.13346,2.07489 -2.13345,2.07489 12.44517,-0.24098 z m 21.18241,-2.74379 5.18147,0.0218 0.86333,-2.24979 c 0.47484,-1.23737 0.86332,-2.6066 0.86332,-3.04272 l 0,-0.79294 -7.3044,0.86509 c -4.01743,0.47581 -7.67912,1.2398 -8.13707,1.69777 l -0.83266,0.83264 2.09227,1.3232 2.09227,1.32319 5.18147,0.0218 z m 13.51997,-0.44077 c 1.44823,-0.41015 12.87374,-1.13864 25.39003,-1.61888 12.51629,-0.48024 26.01904,-1.22994 30.00614,-1.66599 l 7.24925,-0.79282 2.45332,-16.57544 c 1.34932,-9.116483 2.80932,-18.065313 3.24443,-19.886283 l 0.79112,-3.31087 -19.73867,0.46626 -19.73867,0.46625 -20.15682,12.05141 -20.15681,12.051403 3.96423,1.66683 3.96422,1.66683 0.97572,3.88756 0.97571,3.88756 -0.92816,4.22594 -0.92819,4.22595 2.63315,-0.74571 z m -85.5498,-3.80437 c 0.39113,0 0.71115,-0.32002 0.71115,-0.71115 0,-0.39114 -0.32002,-0.71115 -0.71115,-0.71115 -0.39114,0 -0.71116,0.32001 -0.71116,0.71115 0,0.39113 0.32002,0.71115 0.71116,0.71115 z m 155.53086,0 4.05533,0 5.39786,-18.134403 c 2.96883,-9.97391 5.69267,-18.93444 6.05298,-19.91227 l 0.65513,-1.77788 -7.2637,0 -7.2637,0 -0.0259,1.06672 c -0.0142,0.58671 -1.28266,8.74718 -2.81872,18.1344 -1.53606,9.387223 -2.80449,17.867713 -2.81873,18.845553 l -0.0259,1.77788 4.05532,0 z m 34.34693,-1.64687 3.55576,0 -1.77788,-0.7174 -1.77788,-0.7174 -1.77789,0.7174 -1.77788,0.7174 3.55577,0 z m -169.05176,-1.19774 13.00338,0 14.37601,-9.70479 c 7.90681,-5.337643 21.35028,-13.818143 29.87437,-18.845553 l 15.49837,-9.14076 -5.95419,-0.4401 -5.95417,-0.44012 -7.60789,2.21167 -7.6079,2.21169 -16.87049,8.79209 c -9.27877,4.83564 -22.47082,12.237693 -29.31567,16.448973 -6.84485,4.21127 -12.44517,7.93812 -12.44517,8.28188 0,0.34376 5.8515,0.62502 13.00335,0.62502 z m 175.10118,-6.9028 1.30294,-1.30295 -0.52921,-3.36422 -0.52922,-3.364243 -0.77374,4.667183 -0.77373,4.66719 1.30296,-1.30296 z m -4.62712,-0.20873 1.42231,0 0,-1.50625 0,-1.50623 -1.42231,0.87902 c -0.78227,0.48347 -1.4223,1.16129 -1.4223,1.50625 0,0.34497 0.64003,0.62721 1.4223,0.62721 z m -0.71115,-3.75257 2.13346,-0.81869 0,-5.537053 0,-5.53705 -1.24452,0 -1.24452,0 -0.88894,4.44471 c -0.48892,2.44458 -0.88894,5.304673 -0.88894,6.355743 l 0,1.91102 2.13346,-0.81868 z m 4.52735,-8.781503 0.74703,-1.86677 -0.8593,-0.85932 -0.85932,-0.8593 0.11222,2.72608 0.11222,2.72609 0.74703,-1.86678 z m -2.40989,-5.53961 2.82862,-0.73969 -0.7791,-1.26061 c -0.42851,-0.69333 -1.70139,-1.2606 -2.82862,-1.2606 l -2.04951,0 0,2.0003 0,2.0003 2.82861,-0.7397 z m -57.70395,-17.96073 19.79569,-0.23438 0.60859,-1.83159 0.60858,-1.83159 -15.42621,0.93045 c -8.48443,0.51174 -17.66635,1.44143 -20.40429,2.06597 l -4.97806,1.13551 19.7957,-0.23437 z m -170.06389,173.971033 -16.14156,-0.027 -6.52354,-4.09785 -6.52353,-4.09783 -4.88472,-5.70671 -4.88473,-5.70671 -2.60839,-7.25368 -2.60839,-7.25368 -0.0771,-8.17932 -0.0771,-8.17934 2.45992,-7.4061 2.45992,-7.40612 6.36753,-7.08222 6.36752,-7.08223 8.11086,-3.98297 8.11086,-3.98298 11.37845,0.0213 11.37844,0.0213 6.57447,3.01867 6.57448,3.01866 5.98119,5.40365 5.98119,5.40364 3.79402,7.20179 3.79401,7.20177 0.003,13.5119 0.003,13.5119 -3.29424,6.18022 -3.29426,6.18023 -5.9468,5.93897 -5.94681,5.93896 -5.19302,2.45944 -5.19291,2.45945 -16.14156,-0.027 z m 8.17079,-11.35142 c 1.10016,0 1.9905,-0.48003 1.97852,-1.06673 -0.0114,-0.58671 -0.56322,-1.92088 -1.22497,-2.96484 l -1.20321,-1.89813 -0.77532,2.96486 -0.77532,2.96484 2.0003,0 z m -19.16641,-1.42231 1.42231,0 -0.87903,-1.42231 c -0.48347,-0.78226 -1.51907,-1.4223 -2.30133,-1.4223 l -1.42231,0 0.87903,1.4223 c 0.48347,0.78227 1.51906,1.42231 2.30133,1.42231 z m 10.26589,-0.28516 5.70167,-0.42599 0.46963,-1.43283 0.46963,-1.43283 -6.40389,0.50931 -6.40389,0.50933 -0.0218,-2.63226 -0.0218,-2.63225 -1.31916,2.08575 -1.31917,2.08576 1.57354,1.896 1.57353,1.89599 5.70167,-0.42598 z m 16.5061,-1.13715 c 0.7361,0 1.66801,-0.53336 2.07089,-1.18525 l 0.73253,-1.18526 -2.07089,0 -2.07089,0 0,1.18526 c 0,0.65189 0.60226,1.18525 1.33836,1.18525 z m -34.0175,-2.84461 c 0.70858,0 2.03758,-1.44008 2.95333,-3.20018 l 1.66501,-3.20019 -1.16077,1.08664 -1.16079,1.08664 -4.00995,-3.84177 -4.00994,-3.84178 0,-2.57851 0,-2.57851 -1.42231,0 -1.4223,0 0.0503,1.77788 c 0.0277,0.97783 0.89822,3.30753 1.93444,5.17709 l 1.88404,3.39921 3.39921,1.88403 3.3992,1.88404 -2.57297,0.0503 -2.57297,0.0505 0.87902,1.42231 c 0.48347,0.78227 1.45878,1.42231 2.16735,1.42231 z m 34.26307,-1.43808 2.29508,0.0158 3.74972,-3.74971 3.74971,-3.74972 -0.0432,-2.29508 -0.0432,-2.29509 -1.40215,2.40403 c -0.77119,1.32222 -3.47189,4.03528 -6.00154,6.02904 l -4.5994,3.62498 2.29509,0.0158 z m -9.40661,-1.40653 c 0.39113,0 0.71115,-0.32002 0.71115,-0.71115 0,-0.39113 -0.32002,-0.71115 -0.71115,-0.71115 -0.39114,0 -0.71116,0.32002 -0.71116,0.71115 0,0.39113 0.32002,0.71115 0.71116,0.71115 z m -0.97088,-4.2759 c 0.24827,0.004 0.0623,-1.21723 -0.41344,-2.71592 l -0.86486,-2.72493 1.37777,-0.85149 1.37776,-0.85151 0.94342,2.97245 c 0.51888,1.63484 1.22895,2.68691 1.57796,2.33792 0.34899,-0.34901 -0.10909,-2.2667 -1.01803,-4.26154 l -1.65258,-3.627 -2.04129,0.78331 -2.04129,0.78332 -0.7922,-3.02934 c -0.43569,-1.66613 -1.28909,-3.02934 -1.89643,-3.02934 -0.60734,0 -1.47266,0.96006 -1.92294,2.13346 l -0.81868,2.13346 -2.53368,0.009 -2.53367,0.009 -2.50957,4.61349 -2.50958,4.61351 2.73756,-3.20019 c 1.50567,-1.75918 3.15813,-3.19926 3.67215,-3.19926 l 0.9346,0 -0.8145,3.20019 -0.8145,3.20018 1.61012,-3.11721 c 0.88557,-1.71447 2.52289,-3.46746 3.63847,-3.89556 l 2.02834,-0.77835 2.41384,4.24214 c 1.32759,2.33318 2.61695,4.2462 2.86525,4.25115 z m 22.30546,-1.41332 c 0.39113,0 0.71115,-0.32002 0.71115,-0.71115 0,-0.39114 -0.32002,-0.71116 -0.71115,-0.71116 -0.39114,0 -0.71115,0.32002 -0.71115,0.71116 0,0.39113 0.32001,0.71115 0.71115,0.71115 z m 1.62571,-2.88984 c 0.11193,0.0249 0.52052,-0.78115 0.90808,-1.79114 l 0.70468,-1.83638 -3.67909,-0.30449 -3.67909,-0.30448 2.77101,2.09562 c 1.52405,1.15259 2.86254,2.11598 2.97441,2.14087 z m -58.16651,-3.38785 c 0.39113,-0.39113 0.29699,-1.79042 -0.20919,-3.10953 -0.50619,-1.3191 -1.24037,-2.07836 -1.6315,-1.68722 -0.39113,0.39113 -0.29699,1.79043 0.20919,3.10953 0.50619,1.3191 1.24037,2.07836 1.6315,1.68722 z m 50.85158,-0.83384 c 0.39113,0 0.71115,-0.32002 0.71115,-0.71115 0,-0.39113 -0.32002,-0.71115 -0.71115,-0.71115 -0.39114,0 -0.71116,0.32002 -0.71116,0.71115 0,0.39113 0.32002,0.71115 0.71116,0.71115 z m -4.26692,-1.4223 c 0.39113,0 0.71115,-0.32002 0.71115,-0.71116 0,-0.39113 -0.32002,-0.71115 -0.71115,-0.71115 -0.39113,0 -0.71115,0.32002 -0.71115,0.71115 0,0.39114 0.32002,0.71116 0.71115,0.71116 z m -25.43363,-1.42231 c 0.39114,0 0.3128,-0.64456 -0.17409,-1.43235 l -0.88522,-1.43236 2.2236,-0.85327 c 1.22298,-0.4693 2.21861,-1.26482 2.21251,-1.76784 -0.006,-0.503 -1.49509,-1.60194 -3.30884,-2.44208 l -3.29774,-1.52754 -2.64155,0.9266 -2.64156,0.9266 1.83533,1.13431 1.83531,1.13429 -1.92973,1.22274 -1.92972,1.22272 3.11624,0.0218 3.11626,0.0218 0.87902,1.4223 c 0.48347,0.78227 1.19905,1.42231 1.59018,1.42231 z m 3.38789,0 c 0.78227,0 1.42231,-0.64004 1.42231,-1.4223 0,-0.78227 -0.64004,-1.42231 -1.42231,-1.42231 -0.78226,0 -1.4223,0.64004 -1.4223,1.42231 0,0.78226 0.64004,1.4223 1.4223,1.4223 z m 8.53384,0 1.8964,0 -0.94819,-0.94821 -0.94821,-0.94819 -0.94821,0.94819 -0.9482,0.94821 1.89641,0 z m 8.3987,-0.11236 3.69089,-0.11222 -1.77788,-0.7174 c -0.97783,-0.39455 -1.77788,-1.30408 -1.77788,-2.02115 l 0,-1.30379 2.48903,-0.0902 2.48904,-0.0902 -2.93035,-1.18651 -2.93036,-1.1865 -3.8856,0.74279 -3.88561,0.74277 2.41391,2.66733 2.4139,2.66734 3.69091,-0.11236 z m 18.72338,-0.65961 c 0.72821,-0.44999 1.32403,-1.76574 1.32403,-2.9238 l 0,-2.1056 -1.98418,1.83395 -1.98417,1.83396 0.66015,1.08993 0.66015,1.08993 1.32402,-0.8183 z m -55.2135,-4.89127 7.46799,-0.68516 -6.37701,-0.47958 -6.37701,-0.47957 -1.06832,-1.67987 -1.06831,-1.67987 -0.0226,2.84461 -0.0226,2.84461 7.46799,-0.68517 z m 24.6196,1.39632 2.04951,0 0,-2.84461 0,-2.84461 -2.04951,0 c -1.12724,0 -2.44509,0.64004 -2.92856,1.42231 l -0.87903,1.4223 0.87903,1.42231 c 0.48347,0.78227 1.80132,1.4223 2.92856,1.4223 z m 27.80151,0 c 0.59406,0 1.45957,-1.19553 1.92334,-2.65675 l 0.84321,-2.65675 -1.37966,-3.62882 -1.37968,-3.62882 -2.56789,-1.49385 -2.56789,-1.49386 3.15556,-0.0432 3.15554,-0.0432 -0.76294,-1.9882 -0.76294,-1.98818 -7.33824,4.83279 c -4.03604,2.65805 -7.83287,4.83281 -8.43742,4.83281 -0.60453,0 -1.09916,-0.51203 -1.09916,-1.13784 0,-0.62581 0.80005,-2.00456 1.77789,-3.06389 l 1.77788,-1.92604 -3.36347,2.24543 -3.36348,2.24544 -1.97017,-0.75603 -1.97017,-0.75601 -0.11222,-3.04803 -0.11222,-3.04801 -0.72034,1.78674 -0.72034,1.78676 -1.39546,-0.86245 -1.39546,-0.86244 -1.79585,2.45597 -1.79584,2.45595 -2.89253,-1.54802 c -1.59089,-0.85142 -4.8805,-3.81221 -7.31023,-6.57952 l -4.41771,-5.03149 0.93318,-2.48997 0.93317,-2.48998 -2.47159,2.01167 -2.47162,2.01167 6.74206,6.84497 6.74204,6.84497 -0.97226,0.97225 -0.97226,0.97226 -3.2089,-2.70719 -3.20891,-2.70719 3.48749,3.94309 3.4875,3.94308 1.80061,-0.69095 1.80059,-0.69096 0.84064,1.36018 c 0.46235,0.74811 1.3984,1.3602 2.08009,1.3602 l 1.23944,0 0.4545,-3.20019 0.4545,-3.20019 2.13346,0 2.13346,0 0.20438,2.84461 c 0.11236,1.56454 0.27243,3.45265 0.35558,4.1958 l 0.15119,1.35119 1.59561,-1.59562 1.59563,-1.59562 1.83389,0.70373 1.83391,0.70374 5.9851,-3.96076 5.98511,-3.96075 2.79205,3.44803 2.79206,3.44804 -0.58191,3.96475 -0.58189,3.96476 1.08013,0 z m -20.06278,-3.55576 c 0.78227,-0.48347 1.42231,-1.16128 1.42231,-1.50625 0,-0.34497 -0.64004,-0.62721 -1.42231,-0.62721 l -1.4223,0 0,1.50625 0,1.50624 1.4223,-0.87903 z m -35.91321,-0.7144 1.06673,-0.003 0.15241,-4.28276 0.15242,-4.28276 2.55706,-2.82553 2.55705,-2.82592 -1.84152,0 -1.84153,0 -1.88943,2.48904 -1.88945,2.48903 -0.0452,4.62249 -0.0452,4.6225 1.06673,-0.003 z m 21.21606,-0.47085 0.9482,-0.94821 -0.9482,-0.94821 -0.94821,-0.94819 0,1.8964 0,1.8964 0.94821,-0.94819 z m 7.58563,-5.21512 1.8964,0 -0.9482,-0.94821 -0.9482,-0.9482 -0.94821,0.9482 -0.9482,0.94821 1.89641,0 z m -25.6015,-9.95614 3.41353,0 -1.70677,-1.70677 -1.70676,-1.70677 -1.70677,1.70677 -1.70677,1.70677 3.41354,0 z m 29.15726,-1.42231 c 0.39113,0 0.71115,-0.32002 0.71115,-0.71115 0,-0.39114 -0.32002,-0.71115 -0.71115,-0.71115 -0.39113,0 -0.71115,0.32001 -0.71115,0.71115 0,0.39113 0.32002,0.71115 0.71115,0.71115 z m 16.48917,-0.38106 2.65594,0.20006 0.7235,-1.17064 0.7235,-1.17065 -2.15035,-1.78463 -2.15036,-1.78464 0.97448,2.6902 0.97449,2.69021 -3.56448,-3.74502 -3.56448,-3.74501 -3.20985,-1.01876 -3.20984,-1.01877 -1.36802,1.36803 -1.36803,1.36802 4.31667,0.86334 4.31665,0.86332 1.62213,2.59743 1.62211,2.59743 2.65594,0.20008 z m -34.87968,-4.49328 c 1.2281,-1.2281 3.75187,-2.61414 5.60838,-3.0801 l 3.37547,-0.84718 1.50314,0.92899 1.50314,0.92899 0,-1.55088 0,-1.5509 -2.26273,-0.86828 -2.26274,-0.86829 -4.84878,2.31222 -4.8488,2.31223 0,2.25805 0,2.25807 2.23292,-2.23292 z m 21.23512,-5.98975 c 1.1734,-0.45028 2.13346,-1.07023 2.13346,-1.37768 0,-0.30743 -0.96006,-0.55898 -2.13346,-0.55898 l -2.13346,0 0,1.37767 0,1.37766 2.13346,-0.81867 z m -7.82268,-0.51435 c 0.78227,0 1.42231,-0.64004 1.42231,-1.42231 0,-0.78227 -0.64004,-1.4223 -1.42231,-1.4223 -0.78227,0 -1.42231,0.64003 -1.42231,1.4223 0,0.78227 0.64004,1.42231 1.42231,1.42231 z m 210.0498,18.44474 -1.16258,0.0452 0.96945,-3.05447 0.96946,-3.05448 4.90305,-4.90305 4.90305,-4.90305 -2.57648,-1.95338 -2.57646,-1.95338 2.18425,-0.0452 2.18426,-0.0452 0,-2.84462 0,-2.84461 -1.11753,0 c -0.61464,-10e-6 -1.11752,-0.64005 -1.11752,-1.42232 l 0,-1.4223 2.13346,0 2.13346,0 0,1.47235 0,1.47235 2.87401,-1.53813 2.87399,-1.53812 1.39292,0.86088 1.39291,0.86086 0,4.22762 0,4.2276 -2.15157,0.82564 -2.15157,0.82563 -2.362,-1.93699 -2.36199,-1.93701 0.7829,3.04059 0.78291,3.0406 -3.32971,4.07093 c -1.83135,2.23902 -3.35275,4.64041 -3.38088,5.33644 -0.0282,0.69604 -1.17121,2.11577 -2.54018,3.15496 -1.36897,1.0392 -3.01219,1.9098 -3.65161,1.93468 z m 16.80793,-19.86705 c 0.39114,0 0.71116,-0.32002 0.71116,-0.71115 0,-0.39114 -0.32002,-0.71115 -0.71116,-0.71115 -0.39113,0 -0.71115,0.32001 -0.71115,0.71115 0,0.39113 0.32002,0.71115 0.71115,0.71115 z m -3.55576,-2.13346 c 0.78227,-0.48347 1.42231,-1.16127 1.42231,-1.50623 0,-0.34497 -0.64004,-0.62723 -1.42231,-0.62723 l -1.4223,0 0,1.50625 0,1.50625 1.4223,-0.87904 z m 3.55576,-2.13346 c 0.39114,0 0.71116,-0.32001 0.71116,-0.71115 0,-0.39113 -0.32002,-0.71115 -0.71116,-0.71115 -0.39113,0 -0.71115,0.32002 -0.71115,0.71115 0,0.39114 0.32002,0.71115 0.71115,0.71115 z m 5.93982,5.98545 -0.73718,1.83724 -0.11222,-1.69394 c -0.0619,-0.93167 0.52769,-2.08951 1.30996,-2.57298 l 1.4223,-0.87903 0,-2.67674 0,-2.67672 1.54624,-0.95563 1.54623,-0.95562 1.5275,1.52749 c 0.84012,0.84012 1.70452,3.18789 1.92089,5.21725 l 0.39338,3.68976 -2.06292,0.79163 -2.06293,0.79161 -1.97703,-1.64078 -1.97704,-1.64079 -0.73718,1.83725 z m 4.72748,-1.71853 1.8964,0 -0.9482,-0.94819 -0.9482,-0.94821 -0.94821,0.94821 -0.9482,0.94819 1.89641,0 z m 0.71115,-4.26692 c 0.39113,0 0.71115,-0.32001 0.71115,-0.71115 0,-0.39113 -0.32002,-0.71115 -0.71115,-0.71115 -0.39114,0 -0.71115,0.32002 -0.71115,0.71115 0,0.39114 0.32001,0.71115 0.71115,0.71115 z m -3.91134,-6.0117 -2.48904,2.18567 0,-2.11684 c 0,-1.16427 0.47187,-2.58871 1.0486,-3.16544 0.57672,-0.57672 1.05674,-2.05154 1.06673,-3.27736 l 0.0181,-2.22879 2.36982,-1.49969 2.3698,-1.49971 2.25269,1.86957 c 1.23904,1.02825 2.25275,2.70811 2.25275,3.73301 l 0,1.86346 -3.20019,0.97523 c -1.7601,0.53637 -4.32025,1.95877 -5.68922,3.16089 z"
       id="path3736" />
    <rect
       style="fill:#ffffff;fill-opacity:0.9848485;stroke:#ffffff;stroke-width:0.0716368;stroke-miterlimit:4;stroke-opacity:1;stroke-dasharray:none"
       id="rect3980"
       width="5.3253241"
       height="78.826691"
       x="339.86435"
       y="170.41696" />
    <rect
       style="fill:#ffffff;fill-opacity:0.9848485;stroke:#ffffff;stroke-width:0;stroke-miterlimit:4;stroke-opacity:1;stroke-dasharray:none"
       id="rect3980-4"
       width="98.464561"
       height="42.146553"
       x="543.43195"
       y="152.73592" />
    <rect
       style="fill:#ffffff;fill-opacity:0.9848485;stroke:#ffffff;stroke-width:0;stroke-miterlimit:4;stroke-opacity:1;stroke-dasharray:none"
       id="rect3980-4-4"
       width="35.804024"
       height="18.648851"
       x="602.17627"
       y="133.1545" />
    <rect
       style="fill:#ffffff;fill-opacity:0.9848485;stroke:#ffffff;stroke-width:0;stroke-miterlimit:4;stroke-opacity:1;stroke-dasharray:none"
       id="rect3980-4-4-5"
       width="41.025734"
       height="18.648851"
       x="657.00421"
       y="130.54366" />
    <rect
       style="fill:#ffffff;fill-opacity:0.9848485;stroke:#ffffff;stroke-width:0;stroke-miterlimit:4;stroke-opacity:1;stroke-dasharray:none"
       id="rect3980-4-4-5-5"
       width="41.025734"
       height="18.648851"
       x="655.69873"
       y="146.20879" />
    <rect
       style="fill:#ffffff;fill-opacity:0.9848485;stroke:#ffffff;stroke-width:0;stroke-miterlimit:4;stroke-opacity:1;stroke-dasharray:none"
       id="rect3980-4-4-5-5-9"
       width="41.025734"
       height="18.648851"
       x="653.08789"
       y="160.5685" />
    <rect
       style="fill:#ffffff;fill-opacity:0.9848485;stroke:#ffffff;stroke-width:0;stroke-miterlimit:4;stroke-opacity:1;stroke-dasharray:none"
       id="rect3980-4-4-5-5-9-5"
       width="41.025734"
       height="18.648851"
       x="675.28015"
       y="148.81964" />
    <rect
       style="fill:#ffffff;fill-opacity:0.9848485;stroke:#ffffff;stroke-width:0;stroke-miterlimit:4;stroke-opacity:1;stroke-dasharray:none"
       id="rect3980-4-4-5-5-9-5-4"
       width="41.025734"
       height="18.648851"
       x="675.28021"
       y="161.87393" />
    <rect
       style="fill:#ffffff;fill-opacity:0.9848485;stroke:#ffffff;stroke-width:0;stroke-miterlimit:4;stroke-opacity:1;stroke-dasharray:none"
       id="rect3980-4-4-5-5-9-5-4-9"
       width="41.025734"
       height="18.648851"
       x="649.17163"
       y="174.92821" />
    <rect
       style="fill:#ffffff;fill-opacity:0.9848485;stroke:#ffffff;stroke-width:0;stroke-miterlimit:4;stroke-opacity:1;stroke-dasharray:none"
       id="rect3980-4-4-5-5-9-5-4-9-8"
       width="41.025734"
       height="18.648851"
       x="675.28015"
       y="173.62277" />
    <rect
       style="fill:#ffffff;fill-opacity:0.9848485;stroke:#ffffff;stroke-width:0;stroke-miterlimit:4;stroke-opacity:1;stroke-dasharray:none"
       id="rect3980-4-4-5-5-9-5-4-9-8-3"
       width="41.025734"
       height="18.648851"
       x="603.48169"
       y="171.01193" />
    <rect
       style="fill:#ffffff;fill-opacity:1;stroke:#000000;stroke-width:0.48984021;stroke-miterlimit:4;stroke-opacity:1;stroke-dasharray:none"
       id="rect3982-3"
       width="44.894703"
       height="24.618723"
       x="358.08487"
       y="-211.5744"
       transform="scale(1,-1)" />
    <rect
       style="fill:url(#Wavy);fill-opacity:1;stroke:#000000;stroke-width:2;stroke-miterlimit:4;stroke-opacity:1;stroke-dasharray:none"
       id="rect3982"
       width="44.894703"
       height="24.618723"
       x="358.08487"
       y="-211.5744"
       transform="scale(1,-1)" />
    <path
       style="fill:none;stroke:#000000;stroke-width:3;stroke-linecap:butt;stroke-linejoin:miter;stroke-miterlimit:4;stroke-opacity:1;stroke-dasharray:none;marker-start:none"
       d="M 330.27325,184.25263 114.87766,137.25723"
       id="path5676" />
    <path
       style="fill:none;stroke:#000000;stroke-width:3;stroke-linecap:butt;stroke-linejoin:miter;stroke-miterlimit:4;stroke-opacity:1;stroke-dasharray:none"
       d="M 330.27325,193.39063 117.4885,169.89293"
       id="path5678" />
    <path
       style="fill:none;stroke:#000000;stroke-width:3;stroke-linecap:butt;stroke-linejoin:miter;stroke-miterlimit:4;stroke-opacity:1;stroke-dasharray:none;marker-start:none"
       d="m 114.87765,258.0093 215.3956,-46.9954"
       id="path5676-8" />
    <path
       style="fill:none;stroke:#000000;stroke-width:3;stroke-linecap:butt;stroke-linejoin:miter;stroke-miterlimit:4;stroke-opacity:1;stroke-dasharray:none"
       d="M 117.4885,225.3736 330.27325,201.8759"
       id="path5678-6" />
    <text
       xml:space="preserve"
       style="font-size:29.64422417px;font-style:normal;font-weight:normal;fill:#000000;fill-opacity:1;stroke:none;font-family:Bitstream Vera Sans"
       x="23.289543"
       y="141.32014"
       id="text5891"><tspan
         sodipodi:role="line"
         id="tspan5893"
         x="23.289543"
         y="141.32014">+1.6°</tspan></text>
    <text
       xml:space="preserve"
       style="font-size:29.64422417px;font-style:normal;font-weight:normal;fill:#000000;fill-opacity:1;stroke:none;font-family:Bitstream Vera Sans"
       x="23.289543"
       y="176.76755"
       id="text5891-4"><tspan
         sodipodi:role="line"
         id="tspan5893-7"
         x="23.289543"
         y="176.76755">+0.8°</tspan></text>
    <text
       xml:space="preserve"
       style="font-size:29.64422417px;font-style:normal;font-weight:normal;fill:#000000;fill-opacity:1;stroke:none;font-family:Bitstream Vera Sans"
       x="37.41687"
       y="228.98465"
       id="text5891-4-0"><tspan
         sodipodi:role="line"
         id="tspan5893-7-8"
         x="37.41687"
         y="228.98465">-0.8°</tspan></text>
    <text
       xml:space="preserve"
       style="font-size:29.64422417px;font-style:normal;font-weight:normal;fill:#000000;fill-opacity:1;stroke:none;font-family:Bitstream Vera Sans"
       x="37.41687"
       y="268.14749"
       id="text5891-4-0-8"><tspan
         sodipodi:role="line"
         id="tspan5893-7-8-4"
         x="37.41687"
         y="268.14749">-1.6°</tspan></text>
    <rect
       style="fill:url(#pattern6054);fill-opacity:1;fill-rule:nonzero;stroke:#000000;stroke-width:2;stroke-miterlimit:4;stroke-opacity:1;stroke-dasharray:none"
       id="rect2909"
       width="59.032627"
       height="27.780062"
       x="513.56891"
       y="287.9017" />
    <text
       xml:space="preserve"
       style="font-size:23.13386726px;font-style:normal;font-weight:normal;fill:#000000;fill-opacity:1;stroke:none;font-family:Bitstream Vera Sans"
       x="509.12711"
       y="337.73767"
       id="text2911"><tspan
         sodipodi:role="line"
         id="tspan2913"
         x="509.12711"
         y="337.73767">LIDAR laser </tspan><tspan
         sodipodi:role="line"
         x="509.12711"
         y="366.65503"
         id="tspan2919">scanner location</tspan></text>
    <text
       xml:space="preserve"
       style="font-size:27.85991669px;font-style:normal;font-weight:normal;fill:#000000;fill-opacity:1;stroke:none;font-family:Bitstream Vera Sans"
       x="-43.24049"
       y="73.20562"
       id="text2865"><tspan
         sodipodi:role="line"
         id="tspan2867"
         x="-43.24049"
         y="73.20562">layers</tspan></text>
    <g
       id="g2959"
       transform="translate(133.97468,-48.300832)">
      <path
         transform="matrix(1.2057774,0,0,1.2057774,50.358133,0.1802761)"
         d="m -138.37535,256.05118 c 0,7.93065 -6.42906,14.3597 -14.35971,14.3597 -7.93065,0 -14.35971,-6.42905 -14.35971,-14.3597 0,-7.93065 6.42906,-14.35971 14.35971,-14.35971 7.93065,0 14.35971,6.42906 14.35971,14.35971 z"
         sodipodi:ry="14.359707"
         sodipodi:rx="14.359707"
         sodipodi:cy="256.05118"
         sodipodi:cx="-152.73506"
         id="path2869"
         style="fill:#ffffff;fill-opacity:1;fill-rule:nonzero;stroke:#000000;stroke-width:3;stroke-miterlimit:4;stroke-opacity:1;stroke-dasharray:none"
         sodipodi:type="arc" />
      <text
         id="text2871"
         y="319.58481"
         x="-143.37019"
         style="font-size:29.25579453px;font-style:normal;font-weight:normal;fill:#000000;fill-opacity:1;stroke:none;font-family:Bitstream Vera Sans"
         xml:space="preserve"><tspan
           y="319.58481"
           x="-143.37019"
           id="tspan2873"
           sodipodi:role="line">1</tspan></text>
    </g>
    <g
       id="g2964"
       transform="translate(147.68167,-182.7599)">
      <path
         transform="matrix(1.2057774,0,0,1.2057774,36.651137,89.602082)"
         d="m -138.37535,256.05118 c 0,7.93065 -6.42906,14.3597 -14.35971,14.3597 -7.93065,0 -14.35971,-6.42905 -14.35971,-14.3597 0,-7.93065 6.42906,-14.35971 14.35971,-14.35971 7.93065,0 14.35971,6.42906 14.35971,14.35971 z"
         sodipodi:ry="14.359707"
         sodipodi:rx="14.359707"
         sodipodi:cy="256.05118"
         sodipodi:cx="-152.73506"
         id="path2869-4"
         style="fill:#ffffff;fill-opacity:1;fill-rule:nonzero;stroke:#000000;stroke-width:3;stroke-miterlimit:4;stroke-opacity:1;stroke-dasharray:none"
         sodipodi:type="arc" />
      <text
         id="text2871-1"
         y="409.19946"
         x="-156.42723"
         style="font-size:29.25579453px;font-style:normal;font-weight:normal;fill:#000000;fill-opacity:1;stroke:none;font-family:Bitstream Vera Sans"
         xml:space="preserve"><tspan
           y="409.19946"
           x="-156.42723"
           id="tspan2873-7"
           sodipodi:role="line">2</tspan></text>
    </g>
    <g
       id="g2969"
       transform="translate(135.93283,-320.48253)">
      <path
         transform="matrix(1.2057774,0,0,1.2057774,48.399984,182.28746)"
         d="m -138.37535,256.05118 c 0,7.93065 -6.42906,14.3597 -14.35971,14.3597 -7.93065,0 -14.35971,-6.42905 -14.35971,-14.3597 0,-7.93065 6.42906,-14.35971 14.35971,-14.35971 7.93065,0 14.35971,6.42906 14.35971,14.35971 z"
         sodipodi:ry="14.359707"
         sodipodi:rx="14.359707"
         sodipodi:cy="256.05118"
         sodipodi:cx="-152.73506"
         id="path2869-4-9"
         style="fill:#ffffff;fill-opacity:1;fill-rule:nonzero;stroke:#000000;stroke-width:3;stroke-miterlimit:4;stroke-opacity:1;stroke-dasharray:none"
         sodipodi:type="arc" />
      <text
         id="text2871-1-9"
         y="501.6777"
         x="-145.01407"
         style="font-size:29.25579453px;font-style:normal;font-weight:normal;fill:#000000;fill-opacity:1;stroke:none;font-family:Bitstream Vera Sans"
         xml:space="preserve"><tspan
           y="501.6777"
           x="-145.01407"
           id="tspan2873-7-6"
           sodipodi:role="line">3</tspan></text>
    </g>
    <g
       id="g2974"
       transform="translate(109.82427,-447.76177)">
      <path
         transform="matrix(1.2057774,0,0,1.2057774,74.508543,264.52942)"
         d="m -138.37535,256.05118 c 0,7.93065 -6.42906,14.3597 -14.35971,14.3597 -7.93065,0 -14.35971,-6.42905 -14.35971,-14.3597 0,-7.93065 6.42906,-14.35971 14.35971,-14.35971 7.93065,0 14.35971,6.42906 14.35971,14.35971 z"
         sodipodi:ry="14.359707"
         sodipodi:rx="14.359707"
         sodipodi:cy="256.05118"
         sodipodi:cx="-152.73506"
         id="path2869-4-9-4"
         style="fill:#ffffff;fill-opacity:1;fill-rule:nonzero;stroke:#000000;stroke-width:3;stroke-miterlimit:4;stroke-opacity:1;stroke-dasharray:none"
         sodipodi:type="arc" />
      <text
         id="text2871-1-9-2"
         y="583.93396"
         x="-118.85552"
         style="font-size:29.25579453px;font-style:normal;font-weight:normal;fill:#000000;fill-opacity:1;stroke:none;font-family:Bitstream Vera Sans"
         xml:space="preserve"><tspan
           y="583.93396"
           x="-118.85552"
           id="tspan2873-7-6-1"
           sodipodi:role="line">4</tspan></text>
    </g>
  </g>
</svg>
